<?xml version="1.0" encoding="UTF-8" standalone="no"?>
<svg width="248px" height="152px" viewBox="0 0 248 152" version="1.1" xmlns="http://www.w3.org/2000/svg" xmlns:xlink="http://www.w3.org/1999/xlink">
    <!-- Generator: Sketch 43 (38999) - http://www.bohemiancoding.com/sketch -->
    <title>Circle with Text Centered</title>
    <desc>Created with Sketch.</desc>
    <defs></defs>
    <g id="Symbols" stroke="none" stroke-width="1" fill="none" fill-rule="evenodd" opacity="0.0799999982">
        <g id="Section" transform="translate(-23.000000, -8.000000)">
            <g id="Circle-with-Text-Centered">
                <g transform="translate(23.000000, 8.000000)">
                    <g id="Circle-Image" transform="translate(97.000000, 0.000000)">
                        <path d="M54.1791045,27.0906486 C54.1791045,42.0513524 42.0513524,54.1791045 27.0906486,54.1791045 C12.1277521,54.1791045 0,42.0513524 0,27.0906486 C0,12.1299448 12.1277521,0 27.0906486,0 C42.0513524,0 54.1791045,12.1299448 54.1791045,27.0906486" id="Fill-1195" fill="#6C7A8C"></path>
                        <path d="M43.9738349,32.7029625 L33.369052,19.4754572 C32.730731,18.6805036 31.5254945,18.6826756 30.8915012,19.4798012 L25.5772088,26.1456819 C25.034095,26.8276912 24.0452385,26.9449795 23.359314,26.4063224 L21.208497,24.7208472 C20.5853226,24.2321463 19.6960009,24.2777584 19.1269215,24.8316194 L11.1598105,32.5574382 C10.1320056,33.5522161 10.8352406,35.2985075 12.2633485,35.2985075 L42.7361414,35.2985075 C44.0712059,35.2985075 44.8112255,33.7476965 43.9738349,32.7029625" id="Fill-1196" fill="#B3C0C5"></path>
                        <path d="M12.3134328,18.8794297 C12.3134328,20.6933958 13.6003682,22.1641791 15.1875885,22.1641791 C16.7727661,22.1641791 18.0597015,20.6933958 18.0597015,18.8794297 C18.0597015,17.0654637 16.7727661,15.5970149 15.1875885,15.5970149 C13.6003682,15.5970149 12.3134328,17.0654637 12.3134328,18.8794297" id="Fill-1197" fill="#B3C0C5"></path>
                    </g>
                    <path d="M245.247179,136 L2.75282063,136 C1.54052422,136 0.828262225,135.402475 0.828262225,135 L0.828262225,126 C0.828262225,125.595003 1.5375189,125 2.75282063,125 L245.247179,125 C246.459476,125 247.171738,125.597525 247.171738,126 L247.171738,135 C247.171738,135.402475 246.459476,136 245.247179,136" id="Fill-1198" fill="#B3C0C5"></path>
                    <path d="M226.963875,152 L18.1492878,152 C16.9361399,152 16.2247294,151.402612 16.2247294,151 L16.2247294,142 C16.2247294,141.594867 16.9331382,141 18.1492878,141 L226.963875,141 C228.177022,141 228.888433,141.597388 228.888433,142 L228.888433,151 C228.888433,151.402612 228.177022,152 226.963875,152" id="Fill-1199" fill="#B3C0C5"></path>
                    <path d="M223.114758,120 L21.9984047,120 C20.8850909,120 20.0738463,119.308911 20.0738463,118 L20.0738463,106 C20.0738463,104.68853 20.8820863,104 21.9984047,104 L223.114758,104 C224.228071,104 225.039316,104.691089 225.039316,106 L225.039316,118 C225.039316,119.308911 224.228071,120 223.114758,120" id="Fill-1200" fill="#6C7A8C"></path>
                </g>
            </g>
        </g>
    </g>
</svg>